<?xml version="1.0" encoding="UTF-8" standalone="no"?>
<!-- Created with Inkscape (http://www.inkscape.org/) -->

<svg
   xmlns:dc="http://purl.org/dc/elements/1.1/"
   xmlns:cc="http://creativecommons.org/ns#"
   xmlns:rdf="http://www.w3.org/1999/02/22-rdf-syntax-ns#"
   xmlns:svg="http://www.w3.org/2000/svg"
   xmlns="http://www.w3.org/2000/svg"
   xmlns:sodipodi="http://sodipodi.sourceforge.net/DTD/sodipodi-0.dtd"
   xmlns:inkscape="http://www.inkscape.org/namespaces/inkscape"
   width="270mm"
   height="130mm"
   viewBox="0 0 956.69291 460.62992"
   id="svg4224"
   version="1.1"
   inkscape:version="0.91 r13725"
   sodipodi:docname="Scout_Logo_White.svg">
  <defs
     id="defs4226">
    <clipPath
       id="clipPath6416"
       clipPathUnits="userSpaceOnUse">
      <path
         inkscape:connector-curvature="0"
         id="path6418"
         d="m 0,98.371 273.666,0 L 273.666,0 0,0 0,98.371 Z" />
    </clipPath>
  </defs>
  <sodipodi:namedview
     id="base"
     pagecolor="#ffffff"
     bordercolor="#666666"
     borderopacity="1.0"
     inkscape:pageopacity="0.0"
     inkscape:pageshadow="2"
     inkscape:zoom="0.35"
     inkscape:cx="512.79086"
     inkscape:cy="336.5977"
     inkscape:document-units="px"
     inkscape:current-layer="layer2"
     showgrid="false"
     inkscape:window-width="1436"
     inkscape:window-height="855"
     inkscape:window-x="-5"
     inkscape:window-y="0"
     inkscape:window-maximized="0" />
  <metadata
     id="metadata4229">
    <rdf:RDF>
      <cc:Work
         rdf:about="">
        <dc:format>image/svg+xml</dc:format>
        <dc:type
           rdf:resource="http://purl.org/dc/dcmitype/StillImage" />
        <dc:title></dc:title>
      </cc:Work>
    </rdf:RDF>
  </metadata>
  <g
     inkscape:label="Layer 1"
     inkscape:groupmode="layer"
     id="layer1"
     transform="translate(0,-591.73228)">
    <text
       xml:space="preserve"
       style="font-style:normal;font-weight:normal;font-size:40px;line-height:125%;font-family:sans-serif;letter-spacing:0px;word-spacing:0px;fill:#000000;fill-opacity:1;stroke:none;stroke-width:1px;stroke-linecap:butt;stroke-linejoin:miter;stroke-opacity:1"
       x="122.85714"
       y="898.07648"
       id="text4808"
       sodipodi:linespacing="125%"><tspan
         sodipodi:role="line"
         id="tspan4810"
         x="122.85714"
         y="898.07648" /></text>
    <g
       transform="matrix(3.5529868,0,0,-3.5529868,-6.9279156,900.83812)"
       inkscape:label="Scout_Logo_Vector"
       id="g6410"
       style="fill:#ffffff;fill-opacity:1">
      <g
         id="g6412"
         style="fill:#ffffff;fill-opacity:1">
        <g
           clip-path="url(#clipPath6416)"
           id="g6414"
           style="fill:#ffffff;fill-opacity:1">
          <g
             transform="translate(13.0729,68.9857)"
             id="g6420"
             style="fill:#ffffff;fill-opacity:1">
            <path
               inkscape:connector-curvature="0"
               id="path6422"
               style="fill:#ffffff;fill-opacity:1;fill-rule:nonzero;stroke:none"
               d="m 0,0 c 0.511,3.894 2.393,6.976 5.611,9.19 2.291,1.576 5.813,2.585 8.524,2.718 3.216,0.159 5.606,-0.099 8.803,-0.777 1.141,-0.242 2.233,-0.609 3.228,-1.207 C 27.718,8.992 28.635,6.935 28.054,4.82 27.726,3.627 27.227,2.509 26.537,1.46 26.068,0.746 25.66,0.65 24.874,0.992 c -3.087,1.343 -6.342,2.07 -9.677,1.302 -3.654,-0.843 -4.711,-2.972 -3.706,-6.593 0.657,-2.368 2.113,-4.256 3.547,-6.167 3.269,-4.358 6.919,-8.43 9.888,-13.01 2.094,-3.231 3.251,-7.074 3.396,-11.105 0.112,-3.081 -0.285,-5.707 -1.232,-8.676 -1.304,-4.089 -4.455,-6.918 -7.975,-8.295 -4.987,-1.697 -9.647,-1.998 -14.522,0.085 -2.014,0.738 -4.458,2.959 -4.708,4.209 -0.091,0.416 0.055,0.925 0.115,1.418 0.231,1.271 0.664,3.526 1.492,5.369 0.605,1.346 0.935,1.314 2.107,0.607 2.812,-1.813 5.868,-2.617 9.196,-2.01 1.419,0.259 2.726,0.991 3.496,2.355 1.781,3.156 0.733,7.099 -1.294,10.337 -2.705,4.322 -5.974,8.243 -8.999,12.336 C 3.182,-13.036 0.561,-9.186 0,-4.32 -0.178,-2.394 -0.146,-1.394 0,0" />
          </g>
          <g
             transform="translate(87.3504,39.3957)"
             id="g6424"
             style="fill:#ffffff;fill-opacity:1">
            <path
               inkscape:connector-curvature="0"
               id="path6426"
               style="fill:#ffffff;fill-opacity:1;fill-rule:nonzero;stroke:none"
               d="m 0,0 0,-0.01 c 0,-11.37 -0.79,-12.78 -0.79,-12.78 -0.78,-2.1 -2.52,-2 -2.58,-1.99 -0.07,-0.01 -1.81,-0.11 -2.59,1.99 0,0 -0.2,0.35 -0.4,2.13 -0.19,1.77 -0.39,4.97 -0.39,10.65 l 0,0.01 0,0.02 c 0,11.37 0.79,12.77 0.79,12.77 0.78,2.11 2.52,2 2.59,1.99 0.06,0.01 1.8,0.12 2.58,-1.99 0,0 0.2,-0.35 0.39,-2.12 C -0.2,8.9 0,5.71 0,0.02 L 0,0 Z m 10.96,0.83 c -0.02,5.71 -0.457,9.585 -1.47,13.79 -0.581,2.415 -2.745,6.27 -6.425,7.67 -2.17,0.82 -4.445,1.18 -6.725,1.15 -5.24,-0.07 -9.05,-2.5 -11.47,-7.07 -2.12,-4 -2.646,-8.416 -2.673,-12.83 -0.037,-6.25 -0.1,-10.5 1.181,-17.13 0.68,-3.522 2.627,-6.738 6.187,-8.328 3.12,-1.39 5.885,-1.422 9.165,-1.032 6.05,0.72 9.21,4.72 10.78,10.24 1.27,4.45 1.43,8.25 1.45,13.54" />
          </g>
          <g
             transform="translate(128.8558,21.056)"
             id="g6428"
             style="fill:#ffffff;fill-opacity:1">
            <path
               inkscape:connector-curvature="0"
               id="path6430"
               style="fill:#ffffff;fill-opacity:1;fill-rule:nonzero;stroke:none"
               d="m 0,0 c 0.005,-0.968 -0.292,-1.514 -1.188,-1.939 -6.053,-2.87 -12.324,-3.727 -18.817,-1.933 -3.793,1.047 -5.861,3.794 -6.562,7.595 -0.339,1.839 -0.513,3.697 -0.509,5.577 0.019,9.675 0.008,19.35 0.01,29.024 0,2.044 0.502,2.488 2.433,2.487 l 6.836,-0.01 c 1.173,0.042 1.484,-0.369 1.48,-1.507 L -16.345,8.988 c 0.01,-3.546 0.53,-4.65 2.468,-4.844 0.99,-0.099 1.969,0.153 2.868,0.648 0.564,0.275 0.493,1.035 0.494,1.601 l 0.008,31.063 c 0,3.195 0.164,3.358 3.387,3.358 l 5.739,0.003 c 1.076,-0.005 1.37,-0.405 1.365,-1.375 L 0,0 Z" />
          </g>
          <g
             transform="translate(137.5485,39.2698)"
             id="g6432"
             style="fill:#ffffff;fill-opacity:1">
            <path
               inkscape:connector-curvature="0"
               id="path6434"
               style="fill:#ffffff;fill-opacity:1;fill-rule:nonzero;stroke:none"
               d="m 0,0 c 0,4.118 -0.042,8.237 0.026,12.355 -0.007,1.295 -0.398,1.436 -1.512,1.454 l -2.877,-0.013 c -0.568,-0.006 -0.884,0.182 -0.906,0.82 0,0 -0.197,4.303 0.196,6.452 0.206,1.126 0.8,1.528 1.883,1.541 C 0,22.647 0,22.665 0,25.81 c 0,2.838 0,5.677 0,8.516 0,3.211 0.663,4.031 3.885,4.309 1.826,0.158 5.515,0.039 5.515,0.039 0.937,0.009 0.845,-0.65 0.845,-1.246 0.005,-4.358 0.003,-8.717 0.004,-13.075 10e-4,-1.751 0.002,-1.751 1.767,-1.753 l 4.678,0.004 c 0.713,0.01 0.999,-0.272 0.999,-0.991 0,-2.074 0.024,-4.147 -0.268,-6.209 -0.166,-1.177 -0.912,-1.597 -1.991,-1.606 l -4.198,10e-4 c -0.717,0.015 -0.996,-0.255 -0.994,-0.982 0.016,-7.477 -0.005,-14.954 0.034,-22.431 0.113,-3.512 0.633,-4.47 2.359,-4.504 1.224,-0.024 2.35,0.422 3.457,0.856 0.7,0.274 0.996,0.347 1.18,-0.584 0.365,-2.191 0.533,-3.233 0.397,-4.865 -0.18,-2.153 -1.725,-3.181 -3.56,-3.719 -2.765,-0.811 -5.589,-0.725 -8.386,-0.089 -2.69,0.611 -4.407,2.872 -4.961,4.983 -0.514,1.762 -0.719,3.595 -0.744,5.421 C -0.039,-8.077 0,-4.038 0,0" />
          </g>
          <g
             transform="translate(43.9357,38.3664)"
             id="g6436"
             style="fill:#ffffff;fill-opacity:1">
            <path
               inkscape:connector-curvature="0"
               id="path6438"
               style="fill:#ffffff;fill-opacity:1;fill-rule:nonzero;stroke:none"
               d="m 0,0 c -0.04,4.444 0.176,10.328 2.022,15.194 1.314,3.464 3.271,6.399 6.746,7.927 3.692,1.623 7.641,1.837 11.567,0.605 2.603,-0.818 3.582,-2.214 3.34,-4.927 -0.112,-1.259 -0.329,-2.515 -0.665,-3.75 -0.212,-0.779 -0.581,-0.821 -1.218,-0.601 -1.053,0.364 -2.129,0.61 -3.238,0.79 C 15.264,15.771 13.24,14.665 12.2,11.516 11.436,9.204 10.889,6.964 10.73,4.528 10.451,0.227 10.566,-1.138 10.689,-3.931 c 0.097,-2.211 0.485,-4.476 1.458,-6.562 0.931,-1.996 3.26,-2.457 4.878,-2.365 1.625,0.092 3.235,0.401 4.753,1.036 0.591,0.247 0.807,-0.065 0.929,-0.538 0.476,-1.828 0.523,-3.404 0.473,-5.568 -0.089,-0.895 -0.45,-1.753 -1.408,-2.336 -0.74,-0.451 -3.031,-1.354 -5.34,-1.63 -3.014,-0.361 -6.071,-0.394 -8.988,0.655 -3.403,1.224 -5.067,3.974 -5.955,7.272 C -0.04,-8.368 -0.067,-1.562 0,0" />
          </g>
          <g
             transform="translate(250.1629,76.6157)"
             id="g6440"
             style="fill:#ffffff;fill-opacity:1">
            <path
               inkscape:connector-curvature="0"
               id="path6442"
               style="fill:#ffffff;fill-opacity:1;fill-rule:nonzero;stroke:none"
               d="M 0,0 C -0.29,0.52 -0.36,0.88 0.17,1.16 0.35,0.78 0.4,0.43 0,0 m 0.05,-0.94 c 0.02,-0.11 -0.04,-0.23 -0.08,-0.38 -0.19,0.22 -0.47,0.47 -0.21,0.68 0.43,0.33 0.25,-0.16 0.29,-0.3 m -0.47,-2.65 c 0.16,-0.38 0.57,-0.76 0.03,-1.16 -0.25,0.53 -0.67,1.03 -0.29,1.67 -0.1,0.49 0.03,0.83 0.7,0.84 -0.31,-0.41 -0.06,-0.95 -0.44,-1.35 m -0.52,-5.6 c -0.68,-0.45 -1.63,0 -2.28,0.44 -0.33,0.22 -0.74,0.37 -1.03,0.67 -0.25,-0.05 -0.47,0.2 -0.38,0.28 0.25,0.24 0.58,0.33 0.79,-0.1 0.23,-0.06 0.47,-0.08 0.68,-0.18 1.26,-0.62 1.84,-0.27 1.86,1.17 0,0.24 0.04,0.42 0.28,0.38 0.33,-0.06 0.68,-0.13 0.75,-0.61 0.12,-0.81 -0.13,-1.69 -0.67,-2.05 m 0.51,4.4 C -0.7,-5.14 -0.27,-5.71 -1,-6.18 c 0.16,0.64 -0.36,1.25 0.57,1.39 m -23.56,-31.34 c -0.77,-0.41 -0.88,0.03 -0.92,0.54 -0.06,0.64 -0.02,1.28 -0.02,1.97 1.08,-0.28 1.95,-0.9 2.99,-1.51 -0.9,-0.11 -1.43,-0.67 -2.05,-1 M 10.64,-3.8 C 10.49,-3.09 9.67,-3.24 9.16,-2.97 7.77,-2.23 6.36,-1.5 4.98,-0.74 4.35,-0.39 3.96,0.11 4.08,0.91 4.26,2.12 3.6,2.66 2.52,3.07 c -1.95,0.74 -4,1.24 -5.85,2.26 l -1.68,0 C -5.44,4.89 -5.98,5.14 -6.47,5.12 -7.05,4.86 -7.64,4.62 -8.22,4.36 -8.6,4.18 -9.17,4.14 -9.17,3.59 c 0,-0.68 -0.41,-0.73 -0.91,-0.83 -1,-0.19 -2.57,-1.2 -3.09,-1.91 -0.06,-0.08 -0.22,-0.08 -0.33,-0.11 -1.22,-0.31 -2.26,-1.05 -3.52,-1.37 -0.83,-0.21 -1.6,-1.09 -2.43,-1.63 -0.51,-0.32 0.29,-0.51 0.1,-0.69 -1.02,-1.33 -3.22,-0.43 -3.94,-2.29 -1.2,-0.13 -2.33,-0.43 -3.37,-1.12 -0.42,-0.28 -1.72,0.59 -1.13,-0.95 0,-0.02 -0.25,-0.16 -0.4,-0.2 -1.96,-0.56 -3.58,-2.11 -5.77,-1.99 -0.14,0 -0.28,-0.16 -0.43,-0.18 -0.87,-0.16 -1.9,-0.88 -2.44,-0.71 -1.88,0.59 -3.55,-0.66 -5.34,-0.28 -0.41,0.08 -0.91,0.02 -1.3,-0.13 -2.58,-1.01 -5.19,-0.23 -7.78,-0.18 -2.22,0.05 -4.41,0.42 -6.6,0.82 -1.44,0.27 -2.89,-0.59 -4.35,0 -0.12,0.05 -0.33,0 -0.45,-0.08 -1.19,-0.82 -2.5,-1.26 -3.93,-1.37 -0.57,-0.05 -1.01,-0.2 -1.33,-0.8 -0.38,-0.7 -1.03,-1.12 -1.93,-1.1 -3.38,0.05 -6.16,2.02 -7.4,5.19 -1.13,2.87 -1.06,5.84 -0.9,8.83 0.05,0.9 0.23,2.01 -0.89,2.36 -1.25,0.38 -1.67,-0.79 -2.05,-1.59 -1.67,-3.5 -2.02,-7.19 -1.02,-10.94 0.48,-1.81 0.93,-3.72 2.74,-4.82 0.38,-0.23 0.63,-0.66 0.68,-1.09 0.16,-1.22 0.9,-2.08 1.7,-2.92 0.15,-0.16 0.52,-0.42 0.3,-0.54 -0.77,-0.41 -0.36,-1.38 -1.03,-1.87 -0.41,-0.3 -0.9,-0.91 0.08,-1.31 0.11,-0.05 0.34,-0.41 0,-0.69 -0.54,-0.46 -1,-0.97 -0.1,-1.57 0.27,-0.18 -0.07,-0.31 -0.16,-0.39 -0.28,-0.26 -0.61,-0.6 -0.51,-0.9 0.31,-0.96 -0.39,-1.65 -0.51,-2.49 0.32,-0.42 0.72,-0.14 1.13,0.04 -0.09,-0.34 -0.2,-0.48 -0.4,-0.54 -0.44,-0.62 0.43,-1.09 0.26,-1.53 -0.37,-1.02 -1.47,-1.89 -0.4,-3.09 -0.66,-0.78 -0.41,-1.95 -1.17,-2.69 -0.54,-0.51 -1.38,-1.33 -1.05,-1.81 0.87,-1.25 -0.45,-1.85 -0.69,-2.65 -0.23,-0.79 -1.06,-1.45 -1.36,-2.48 -0.29,-1.01 -0.96,-2.1 -2.21,-2.49 -0.6,-0.19 -1.11,-0.58 -1.58,-1.02 0.08,-0.41 0.36,-0.5 0.72,-0.46 0.1,0.23 0.3,0.22 0.49,0.18 0.04,-0.01 0.11,-0.12 0.09,-0.15 -0.12,-0.25 -0.33,-0.32 -0.59,-0.25 -0.24,0 -0.48,-0.01 -0.72,-0.01 -1.67,-1.08 -2.1,-2.73 -2.11,-4.57 -0.01,-2.75 0.82,-5.4 0.92,-8.14 0.02,-0.44 0.18,-0.53 0.57,-0.53 1.28,0.02 2.56,-0.02 3.84,0.02 0.85,0.03 0.89,0.51 0.47,1.12 -0.23,0.35 -0.57,0.61 -0.98,0.61 -0.84,-0.02 -1.08,0.49 -1.25,1.17 -0.27,1.12 -0.26,2.24 0.23,3.27 0.49,1 0.89,1.96 2.23,2.46 1.26,0.48 2.12,1.93 3.71,2.08 -0.22,-3.18 -0.43,-6.39 -0.68,-9.6 -0.04,-0.52 -0.04,-0.88 0.6,-0.88 1.44,0.01 2.88,0.01 4.32,0 0.31,0 0.59,0.08 0.68,0.38 0.1,0.34 0.08,0.66 -0.2,0.99 -0.36,0.42 -0.87,0.36 -1.29,0.57 -0.26,0.13 -0.6,0.03 -0.63,0.52 -0.24,3.63 -0.37,7.22 2.71,9.95 0.23,0.2 0.45,0.67 0.72,0.5 0.91,-0.6 0.92,0.34 1.26,0.67 0.17,0.16 0.09,0.5 0.49,0.57 1.91,0.3 2.71,2.1 4.07,3.15 0.35,0.28 0.61,0.82 0.7,1.35 0.02,0.11 0.22,0.23 0.36,0.25 0.21,0.03 0.22,-0.2 0.25,-0.33 0.06,-0.33 -0.07,-0.85 0.41,-0.86 0.48,0 0.65,0.5 0.83,0.9 0.43,1.01 0.27,2.24 1.58,2.92 0.62,0.32 0.61,1.47 0.75,2.3 0.07,0.41 -0.16,1.3 0.86,0.69 0.42,-0.25 0.76,0.35 0.69,0.56 -0.38,1.08 0.22,1.84 0.7,2.66 0.02,0.03 0.02,0.08 0.04,0.11 0.43,0.92 1.31,1.43 1.98,2.12 0.33,0.34 0.83,-0.25 1.23,-0.45 0.28,-0.14 0.46,-0.03 0.61,0.19 0.18,0.27 0.38,0.23 0.58,0.04 0.77,-0.72 1.33,-0.58 1.6,0.58 0.8,-0.81 1.47,-1.49 2.15,-2.16 0.19,-0.2 0.37,-0.43 0.72,-0.25 1.1,0.6 1.53,0.53 2.39,-0.25 0.28,-0.27 0.64,-0.88 1.03,-0.33 0.49,0.7 0.85,0.43 1.34,0.11 0.84,-0.58 2.23,-0.89 2.73,-0.57 0.94,0.59 1.54,0.04 2.28,0.02 0.24,-0.01 0.52,-0.07 0.71,0.03 0.77,0.4 1.28,0.01 1.78,-0.49 0.53,-0.52 1.03,-0.78 1.89,-0.63 0.7,0.13 1.94,-0.08 2.06,-0.88 0.23,-1.4 0.85,-0.84 1.52,-0.51 0.06,-1.09 0.83,-2.01 0.39,-3.1 -0.1,-0.25 0.18,-0.49 0.44,-0.4 0.6,0.21 0.54,-0.17 0.57,-0.54 0.06,-0.89 0.54,-0.94 1.37,-0.37 -0.95,-1.2 -1.12,-1.8 -0.84,-2.57 0.35,-0.96 0.34,-1.17 0.07,-2.04 -0.08,-0.28 -0.32,-0.57 -0.09,-0.9 0.32,-0.46 0.63,0.14 0.96,0 0.01,-0.91 0.06,-1.8 -0.34,-2.68 -0.24,-0.52 -0.34,-1.15 -0.22,-1.74 0.14,-0.63 0.44,-0.83 0.93,-0.27 -0.1,0.39 0.01,0.71 0.35,0.92 0.04,0.03 0.26,-0.07 0.27,-0.14 0.06,-0.4 -0.06,-0.75 -0.45,-0.95 -0.57,-1.07 -0.45,-2.22 -0.41,-3.37 0.29,-0.26 0.46,-0.28 0.7,0.13 0.31,0.55 0.49,0.36 0.44,-0.18 0.08,-0.42 0.08,-0.79 -0.42,-0.96 -0.31,-1.61 1.04,-2.89 0.91,-4.49 -0.02,-0.27 0.42,-0.3 0.7,-0.3 1.52,0 3.04,0.02 4.56,0 0.51,-0.01 0.88,0.21 1.04,0.65 0.18,0.45 -0.04,0.83 -0.39,1.17 -0.56,0.53 -1.24,0.88 -1.98,1.02 -0.8,0.14 -1.01,0.59 -0.88,1.25 0.34,1.61 -0.17,3.34 0.78,4.86 0.17,0.27 0.22,0.81 0.06,1.04 -0.89,1.27 -0.03,2.64 -0.33,3.92 -0.06,0.27 -0.03,0.47 0.19,0.63 0.51,0.36 0.36,0.84 0.36,1.36 0,0.67 -1,1.64 0.43,2.03 0.1,0.03 0.18,0.36 0.16,0.54 -0.05,0.52 0.25,0.69 0.66,0.83 2.25,0.77 4.38,1.86 6.76,2.27 1.15,0.19 1.45,1.25 1.66,2.25 0.2,0.96 0.29,1.92 -0.64,2.6 -0.71,0.51 -1.44,0.98 -2.16,1.47 -0.76,0.5 -0.92,2.53 -0.09,2.88 1.07,0.46 1.52,1.35 2.15,2.14 0.24,0.31 1.01,-0.04 0.85,0.67 -0.14,0.64 0.15,0.7 0.68,0.74 0.33,0.02 0.7,0.27 0.83,0.61 0.45,1.12 0.68,2.28 1.25,3.41 0.58,1.12 1.27,2.29 1.76,3.52 0.34,0.87 1.36,1.56 2.06,2.35 0.86,0.97 2.22,1.22 3.35,1.82 0.51,0.27 0.8,0.56 1.02,1.03 0.56,1.22 2.23,2.4 3.38,1.93 1.47,-0.61 2.29,0.91 3.62,0.73 0.41,-0.05 1.17,0.47 1.85,0.46 0.6,-0.01 1.2,-0.03 1.8,0.01 0.85,0.06 1.68,0.5 1.86,1.24 0.15,0.66 -0.86,0.6 -1.31,0.92 -0.3,-0.04 -0.53,0.03 -0.62,0.43 0.94,0.08 1.88,-0.12 2.76,0.27 0.14,0.14 0.32,0.26 0.4,0.43 0.36,0.78 0.54,1.62 0.37,2.44" />
          </g>
        </g>
      </g>
    </g>
  </g>
  <g
     inkscape:groupmode="layer"
     id="layer2"
     inkscape:label="Layer 2"
     transform="translate(0,-70.866142)">
    <text
       xml:space="preserve"
       style="font-style:normal;font-weight:500;font-size:142.5px;line-height:125%;font-family:'Lucida Grande';letter-spacing:0px;word-spacing:0px;fill:#ffffff;fill-opacity:1;stroke:none;stroke-width:1px;stroke-linecap:butt;stroke-linejoin:miter;stroke-opacity:1;-inkscape-font-specification:'Lucida Grande Medium';font-stretch:normal;font-variant:normal;"
       x="30.045961"
       y="455.6413"
       id="text4813"
       sodipodi:linespacing="125%"
       transform="scale(0.96141478,1.0401338)"><tspan
         sodipodi:role="line"
         id="tspan4815"
         x="30.045961"
         y="455.6413"
         style="font-size:142.5px;fill:#ffffff;fill-opacity:1;-inkscape-font-specification:'Lucida Grande Medium';font-family:'Lucida Grande';font-weight:500;font-style:normal;font-stretch:normal;font-variant:normal;">Cycling Team</tspan></text>
  </g>
</svg>
